<mxfile host="Electron" agent="Mozilla/5.0 (Windows NT 10.0; Win64; x64) AppleWebKit/537.36 (KHTML, like Gecko) draw.io/24.7.8 Chrome/128.0.6613.36 Electron/32.0.1 Safari/537.36" version="24.7.8">
  <diagram name="Page-1" id="13e1069c-82ec-6db2-03f1-153e76fe0fe0">
    <mxGraphModel dx="1338" dy="820" grid="1" gridSize="10" guides="1" tooltips="1" connect="1" arrows="1" fold="1" page="1" pageScale="1" pageWidth="1100" pageHeight="850" background="none" math="0" shadow="0">
      <root>
        <mxCell id="0" />
        <mxCell id="1" parent="0" />
        <mxCell id="7baba1c4bc27f4b0-2" value=":Servidor" style="shape=umlLifeline;perimeter=lifelinePerimeter;whiteSpace=wrap;html=1;container=1;collapsible=0;recursiveResize=0;outlineConnect=0;rounded=1;shadow=0;comic=0;labelBackgroundColor=none;strokeWidth=1;fontFamily=Verdana;fontSize=12;align=center;" parent="1" vertex="1">
          <mxGeometry x="238" y="80" width="100" height="650" as="geometry" />
        </mxCell>
        <mxCell id="7baba1c4bc27f4b0-10" value="" style="html=1;points=[];perimeter=orthogonalPerimeter;rounded=0;shadow=0;comic=0;labelBackgroundColor=none;strokeWidth=1;fontFamily=Verdana;fontSize=12;align=center;" parent="7baba1c4bc27f4b0-2" vertex="1">
          <mxGeometry x="45" y="100" width="10" height="320" as="geometry" />
        </mxCell>
        <mxCell id="7baba1c4bc27f4b0-36" value="Validar(OTP)" style="html=1;verticalAlign=bottom;endArrow=block;labelBackgroundColor=none;fontFamily=Verdana;fontSize=10;elbow=vertical;edgeStyle=orthogonalEdgeStyle;curved=1;exitX=1.066;exitY=0.713;exitPerimeter=0;" parent="7baba1c4bc27f4b0-2" edge="1">
          <mxGeometry x="-0.3957" y="5" relative="1" as="geometry">
            <mxPoint x="56.659999999999854" y="105.01000000000008" as="sourcePoint" />
            <mxPoint x="51" y="144.1" as="targetPoint" />
            <Array as="points">
              <mxPoint x="106" y="105.1" />
              <mxPoint x="106" y="144.1" />
            </Array>
            <mxPoint as="offset" />
          </mxGeometry>
        </mxCell>
        <mxCell id="7baba1c4bc27f4b0-3" value=":Vault" style="shape=umlLifeline;perimeter=lifelinePerimeter;whiteSpace=wrap;html=1;container=1;collapsible=0;recursiveResize=0;outlineConnect=0;rounded=1;shadow=0;comic=0;labelBackgroundColor=none;strokeWidth=1;fontFamily=Verdana;fontSize=12;align=center;" parent="1" vertex="1">
          <mxGeometry x="440" y="80" width="100" height="650" as="geometry" />
        </mxCell>
        <mxCell id="7baba1c4bc27f4b0-13" value="" style="html=1;points=[];perimeter=orthogonalPerimeter;rounded=0;shadow=0;comic=0;labelBackgroundColor=none;strokeWidth=1;fontFamily=Verdana;fontSize=12;align=center;" parent="7baba1c4bc27f4b0-3" vertex="1">
          <mxGeometry x="46" y="166" width="10" height="150" as="geometry" />
        </mxCell>
        <mxCell id="7baba1c4bc27f4b0-4" value=":SGDB" style="shape=umlLifeline;perimeter=lifelinePerimeter;whiteSpace=wrap;html=1;container=1;collapsible=0;recursiveResize=0;outlineConnect=0;rounded=1;shadow=0;comic=0;labelBackgroundColor=none;strokeWidth=1;fontFamily=Verdana;fontSize=12;align=center;" parent="1" vertex="1">
          <mxGeometry x="644" y="80" width="100" height="650" as="geometry" />
        </mxCell>
        <mxCell id="7baba1c4bc27f4b0-8" value=": Setup" style="shape=umlLifeline;perimeter=lifelinePerimeter;whiteSpace=wrap;html=1;container=0;collapsible=0;recursiveResize=0;outlineConnect=0;rounded=1;shadow=0;comic=0;labelBackgroundColor=none;strokeWidth=1;fontFamily=Verdana;fontSize=12;align=center;" parent="1" vertex="1">
          <mxGeometry x="19" y="80" width="100" height="650" as="geometry" />
        </mxCell>
        <mxCell id="7baba1c4bc27f4b0-16" value="" style="html=1;points=[];perimeter=orthogonalPerimeter;rounded=0;shadow=0;comic=0;labelBackgroundColor=none;strokeWidth=1;fontFamily=Verdana;fontSize=12;align=center;" parent="1" vertex="1">
          <mxGeometry x="688" y="220" width="10" height="180" as="geometry" />
        </mxCell>
        <mxCell id="7baba1c4bc27f4b0-17" value="GerarCredencial()" style="html=1;verticalAlign=bottom;endArrow=block;labelBackgroundColor=none;fontFamily=Verdana;fontSize=10;edgeStyle=elbowEdgeStyle;elbow=vertical;" parent="1" target="7baba1c4bc27f4b0-4" edge="1">
          <mxGeometry relative="1" as="geometry">
            <mxPoint x="496.0000000000002" y="269" as="sourcePoint" />
            <Array as="points">
              <mxPoint x="501" y="269" />
            </Array>
            <mxPoint x="626.0000000000002" y="269" as="targetPoint" />
          </mxGeometry>
        </mxCell>
        <mxCell id="7baba1c4bc27f4b0-23" value="AcessoSGDB()" style="html=1;verticalAlign=bottom;endArrow=block;labelBackgroundColor=none;fontFamily=Verdana;fontSize=12;" parent="1" target="7baba1c4bc27f4b0-4" edge="1">
          <mxGeometry relative="1" as="geometry">
            <mxPoint x="68.5" y="729" as="sourcePoint" />
            <mxPoint x="688" y="729" as="targetPoint" />
            <Array as="points">
              <mxPoint x="504.5" y="729" />
            </Array>
          </mxGeometry>
        </mxCell>
        <mxCell id="7baba1c4bc27f4b0-11" value="SolicitarCredencial(OTP)" style="html=1;verticalAlign=bottom;endArrow=block;entryX=0;entryY=0;labelBackgroundColor=none;fontFamily=Verdana;fontSize=10;edgeStyle=elbowEdgeStyle;elbow=vertical;" parent="1" source="7baba1c4bc27f4b0-9" target="7baba1c4bc27f4b0-10" edge="1">
          <mxGeometry relative="1" as="geometry">
            <mxPoint x="220" y="190" as="sourcePoint" />
          </mxGeometry>
        </mxCell>
        <mxCell id="7baba1c4bc27f4b0-9" value="" style="html=1;points=[];perimeter=orthogonalPerimeter;rounded=0;shadow=0;comic=0;labelBackgroundColor=none;strokeWidth=1;fontFamily=Verdana;fontSize=12;align=center;" parent="1" vertex="1">
          <mxGeometry x="64" y="180" width="10" height="550" as="geometry" />
        </mxCell>
        <mxCell id="QP6aLqSdjkfwqtOfpNBx-1" value=":Object" style="shape=umlLifeline;perimeter=lifelinePerimeter;whiteSpace=wrap;html=1;container=1;collapsible=0;recursiveResize=0;outlineConnect=0;rounded=1;shadow=0;comic=0;labelBackgroundColor=none;strokeWidth=1;fontFamily=Verdana;fontSize=12;align=center;" parent="1" vertex="1">
          <mxGeometry x="221" y="780" width="100" height="580" as="geometry" />
        </mxCell>
        <mxCell id="QP6aLqSdjkfwqtOfpNBx-2" value="" style="html=1;points=[];perimeter=orthogonalPerimeter;rounded=0;shadow=0;comic=0;labelBackgroundColor=none;strokeWidth=1;fontFamily=Verdana;fontSize=12;align=center;" parent="QP6aLqSdjkfwqtOfpNBx-1" vertex="1">
          <mxGeometry x="45" y="100" width="10" height="230" as="geometry" />
        </mxCell>
        <mxCell id="QP6aLqSdjkfwqtOfpNBx-3" value=":Object" style="shape=umlLifeline;perimeter=lifelinePerimeter;whiteSpace=wrap;html=1;container=1;collapsible=0;recursiveResize=0;outlineConnect=0;rounded=1;shadow=0;comic=0;labelBackgroundColor=none;strokeWidth=1;fontFamily=Verdana;fontSize=12;align=center;" parent="1" vertex="1">
          <mxGeometry x="381" y="780" width="100" height="580" as="geometry" />
        </mxCell>
        <mxCell id="QP6aLqSdjkfwqtOfpNBx-4" value="" style="html=1;points=[];perimeter=orthogonalPerimeter;rounded=0;shadow=0;comic=0;labelBackgroundColor=none;strokeWidth=1;fontFamily=Verdana;fontSize=12;align=center;" parent="QP6aLqSdjkfwqtOfpNBx-3" vertex="1">
          <mxGeometry x="45" y="120" width="10" height="200" as="geometry" />
        </mxCell>
        <mxCell id="QP6aLqSdjkfwqtOfpNBx-5" value=":Object" style="shape=umlLifeline;perimeter=lifelinePerimeter;whiteSpace=wrap;html=1;container=1;collapsible=0;recursiveResize=0;outlineConnect=0;rounded=1;shadow=0;comic=0;labelBackgroundColor=none;strokeWidth=1;fontFamily=Verdana;fontSize=12;align=center;" parent="1" vertex="1">
          <mxGeometry x="521" y="780" width="100" height="580" as="geometry" />
        </mxCell>
        <mxCell id="QP6aLqSdjkfwqtOfpNBx-6" value=":Object" style="shape=umlLifeline;perimeter=lifelinePerimeter;whiteSpace=wrap;html=1;container=1;collapsible=0;recursiveResize=0;outlineConnect=0;rounded=1;shadow=0;comic=0;labelBackgroundColor=none;strokeWidth=1;fontFamily=Verdana;fontSize=12;align=center;" parent="1" vertex="1">
          <mxGeometry x="661" y="780" width="100" height="580" as="geometry" />
        </mxCell>
        <mxCell id="QP6aLqSdjkfwqtOfpNBx-7" value=":Object" style="shape=umlLifeline;perimeter=lifelinePerimeter;whiteSpace=wrap;html=1;container=1;collapsible=0;recursiveResize=0;outlineConnect=0;rounded=1;shadow=0;comic=0;labelBackgroundColor=none;strokeWidth=1;fontFamily=Verdana;fontSize=12;align=center;" parent="1" vertex="1">
          <mxGeometry x="801" y="780" width="100" height="580" as="geometry" />
        </mxCell>
        <mxCell id="QP6aLqSdjkfwqtOfpNBx-8" value=":Object" style="shape=umlLifeline;perimeter=lifelinePerimeter;whiteSpace=wrap;html=1;container=1;collapsible=0;recursiveResize=0;outlineConnect=0;rounded=1;shadow=0;comic=0;labelBackgroundColor=none;strokeWidth=1;fontFamily=Verdana;fontSize=12;align=center;" parent="1" vertex="1">
          <mxGeometry x="941" y="780" width="100" height="580" as="geometry" />
        </mxCell>
        <mxCell id="QP6aLqSdjkfwqtOfpNBx-9" value=":Object" style="shape=umlLifeline;perimeter=lifelinePerimeter;whiteSpace=wrap;html=1;container=0;collapsible=0;recursiveResize=0;outlineConnect=0;rounded=1;shadow=0;comic=0;labelBackgroundColor=none;strokeWidth=1;fontFamily=Verdana;fontSize=12;align=center;" parent="1" vertex="1">
          <mxGeometry y="780" width="100" height="580" as="geometry" />
        </mxCell>
        <mxCell id="QP6aLqSdjkfwqtOfpNBx-10" value="" style="html=1;points=[];perimeter=orthogonalPerimeter;rounded=0;shadow=0;comic=0;labelBackgroundColor=none;strokeWidth=1;fontFamily=Verdana;fontSize=12;align=center;" parent="1" vertex="1">
          <mxGeometry x="566" y="920" width="10" height="180" as="geometry" />
        </mxCell>
        <mxCell id="QP6aLqSdjkfwqtOfpNBx-11" value="dispatch" style="html=1;verticalAlign=bottom;endArrow=block;labelBackgroundColor=none;fontFamily=Verdana;fontSize=12;edgeStyle=elbowEdgeStyle;elbow=vertical;" parent="1" source="QP6aLqSdjkfwqtOfpNBx-4" target="QP6aLqSdjkfwqtOfpNBx-10" edge="1">
          <mxGeometry relative="1" as="geometry">
            <mxPoint x="491" y="920" as="sourcePoint" />
            <Array as="points">
              <mxPoint x="441" y="920" />
            </Array>
          </mxGeometry>
        </mxCell>
        <mxCell id="QP6aLqSdjkfwqtOfpNBx-12" value="" style="html=1;points=[];perimeter=orthogonalPerimeter;rounded=0;shadow=0;comic=0;labelBackgroundColor=none;strokeWidth=1;fontFamily=Verdana;fontSize=12;align=center;" parent="1" vertex="1">
          <mxGeometry x="706" y="930" width="10" height="40" as="geometry" />
        </mxCell>
        <mxCell id="QP6aLqSdjkfwqtOfpNBx-13" value="dispatch" style="html=1;verticalAlign=bottom;endArrow=block;entryX=0;entryY=0;labelBackgroundColor=none;fontFamily=Verdana;fontSize=12;edgeStyle=elbowEdgeStyle;elbow=vertical;" parent="1" source="QP6aLqSdjkfwqtOfpNBx-10" target="QP6aLqSdjkfwqtOfpNBx-12" edge="1">
          <mxGeometry relative="1" as="geometry">
            <mxPoint x="631" y="930" as="sourcePoint" />
          </mxGeometry>
        </mxCell>
        <mxCell id="QP6aLqSdjkfwqtOfpNBx-14" value="return" style="html=1;verticalAlign=bottom;endArrow=open;dashed=1;endSize=8;labelBackgroundColor=none;fontFamily=Verdana;fontSize=12;edgeStyle=elbowEdgeStyle;elbow=vertical;" parent="1" source="QP6aLqSdjkfwqtOfpNBx-12" target="QP6aLqSdjkfwqtOfpNBx-10" edge="1">
          <mxGeometry relative="1" as="geometry">
            <mxPoint x="631" y="1006" as="targetPoint" />
            <Array as="points">
              <mxPoint x="651" y="960" />
              <mxPoint x="681" y="960" />
            </Array>
          </mxGeometry>
        </mxCell>
        <mxCell id="QP6aLqSdjkfwqtOfpNBx-15" value="" style="html=1;points=[];perimeter=orthogonalPerimeter;rounded=0;shadow=0;comic=0;labelBackgroundColor=none;strokeWidth=1;fontFamily=Verdana;fontSize=12;align=center;" parent="1" vertex="1">
          <mxGeometry x="566" y="1140" width="10" height="140" as="geometry" />
        </mxCell>
        <mxCell id="QP6aLqSdjkfwqtOfpNBx-16" value="dispatch" style="html=1;verticalAlign=bottom;endArrow=block;entryX=0;entryY=0;labelBackgroundColor=none;fontFamily=Verdana;fontSize=12;" parent="1" source="QP6aLqSdjkfwqtOfpNBx-31" target="QP6aLqSdjkfwqtOfpNBx-15" edge="1">
          <mxGeometry relative="1" as="geometry">
            <mxPoint x="491" y="1120" as="sourcePoint" />
          </mxGeometry>
        </mxCell>
        <mxCell id="QP6aLqSdjkfwqtOfpNBx-17" value="" style="html=1;points=[];perimeter=orthogonalPerimeter;rounded=0;shadow=0;comic=0;labelBackgroundColor=none;strokeColor=#000000;strokeWidth=1;fillColor=#FFFFFF;fontFamily=Verdana;fontSize=12;fontColor=#000000;align=center;" parent="1" vertex="1">
          <mxGeometry x="986" y="1160" width="10" height="30" as="geometry" />
        </mxCell>
        <mxCell id="QP6aLqSdjkfwqtOfpNBx-18" value="dispatch" style="html=1;verticalAlign=bottom;endArrow=block;entryX=0;entryY=0;labelBackgroundColor=none;fontFamily=Verdana;fontSize=12;" parent="1" source="QP6aLqSdjkfwqtOfpNBx-15" target="QP6aLqSdjkfwqtOfpNBx-17" edge="1">
          <mxGeometry relative="1" as="geometry">
            <mxPoint x="911" y="1040" as="sourcePoint" />
          </mxGeometry>
        </mxCell>
        <mxCell id="QP6aLqSdjkfwqtOfpNBx-19" value="return" style="html=1;verticalAlign=bottom;endArrow=open;dashed=1;endSize=8;exitX=0;exitY=0.95;labelBackgroundColor=none;fontFamily=Verdana;fontSize=12;" parent="1" source="QP6aLqSdjkfwqtOfpNBx-17" target="QP6aLqSdjkfwqtOfpNBx-15" edge="1">
          <mxGeometry relative="1" as="geometry">
            <mxPoint x="911" y="1116" as="targetPoint" />
          </mxGeometry>
        </mxCell>
        <mxCell id="QP6aLqSdjkfwqtOfpNBx-20" value="" style="html=1;points=[];perimeter=orthogonalPerimeter;rounded=0;shadow=0;comic=0;labelBackgroundColor=none;strokeWidth=1;fontFamily=Verdana;fontSize=12;align=center;" parent="1" vertex="1">
          <mxGeometry x="851" y="1250" width="10" height="60" as="geometry" />
        </mxCell>
        <mxCell id="QP6aLqSdjkfwqtOfpNBx-21" value="dispatch" style="html=1;verticalAlign=bottom;endArrow=block;entryX=0;entryY=0;labelBackgroundColor=none;fontFamily=Verdana;fontSize=12;edgeStyle=elbowEdgeStyle;elbow=vertical;" parent="1" source="QP6aLqSdjkfwqtOfpNBx-28" target="QP6aLqSdjkfwqtOfpNBx-20" edge="1">
          <mxGeometry relative="1" as="geometry">
            <mxPoint x="781" y="1250" as="sourcePoint" />
          </mxGeometry>
        </mxCell>
        <mxCell id="QP6aLqSdjkfwqtOfpNBx-22" value="return" style="html=1;verticalAlign=bottom;endArrow=open;dashed=1;endSize=8;labelBackgroundColor=none;fontFamily=Verdana;fontSize=12;edgeStyle=elbowEdgeStyle;elbow=vertical;" parent="1" source="QP6aLqSdjkfwqtOfpNBx-20" target="QP6aLqSdjkfwqtOfpNBx-31" edge="1">
          <mxGeometry relative="1" as="geometry">
            <mxPoint x="781" y="1326" as="targetPoint" />
            <Array as="points">
              <mxPoint x="551" y="1300" />
            </Array>
          </mxGeometry>
        </mxCell>
        <mxCell id="QP6aLqSdjkfwqtOfpNBx-23" value="SolicitarCredencial(OTP)" style="html=1;verticalAlign=bottom;endArrow=block;entryX=0;entryY=0;labelBackgroundColor=none;fontFamily=Verdana;fontSize=12;edgeStyle=elbowEdgeStyle;elbow=vertical;" parent="1" source="QP6aLqSdjkfwqtOfpNBx-31" target="QP6aLqSdjkfwqtOfpNBx-2" edge="1">
          <mxGeometry relative="1" as="geometry">
            <mxPoint x="201" y="890" as="sourcePoint" />
          </mxGeometry>
        </mxCell>
        <mxCell id="QP6aLqSdjkfwqtOfpNBx-24" value="dispatch" style="html=1;verticalAlign=bottom;endArrow=block;entryX=0;entryY=0;labelBackgroundColor=none;fontFamily=Verdana;fontSize=12;edgeStyle=elbowEdgeStyle;elbow=vertical;" parent="1" source="QP6aLqSdjkfwqtOfpNBx-2" target="QP6aLqSdjkfwqtOfpNBx-4" edge="1">
          <mxGeometry relative="1" as="geometry">
            <mxPoint x="351" y="900" as="sourcePoint" />
          </mxGeometry>
        </mxCell>
        <mxCell id="QP6aLqSdjkfwqtOfpNBx-25" value="" style="html=1;points=[];perimeter=orthogonalPerimeter;rounded=0;shadow=0;comic=0;labelBackgroundColor=none;strokeWidth=1;fontFamily=Verdana;fontSize=12;align=center;" parent="1" vertex="1">
          <mxGeometry x="571" y="1000" width="10" height="70" as="geometry" />
        </mxCell>
        <mxCell id="QP6aLqSdjkfwqtOfpNBx-26" value="dispatch" style="html=1;verticalAlign=bottom;endArrow=block;labelBackgroundColor=none;fontFamily=Verdana;fontSize=12;elbow=vertical;edgeStyle=orthogonalEdgeStyle;curved=1;entryX=1;entryY=0.286;entryPerimeter=0;exitX=1.038;exitY=0.345;exitPerimeter=0;" parent="1" source="QP6aLqSdjkfwqtOfpNBx-10" target="QP6aLqSdjkfwqtOfpNBx-25" edge="1">
          <mxGeometry relative="1" as="geometry">
            <mxPoint x="446" y="930" as="sourcePoint" />
            <mxPoint x="576" y="930" as="targetPoint" />
            <Array as="points">
              <mxPoint x="631" y="982" />
              <mxPoint x="631" y="1020" />
            </Array>
          </mxGeometry>
        </mxCell>
        <mxCell id="QP6aLqSdjkfwqtOfpNBx-27" value="dispatch" style="html=1;verticalAlign=bottom;endArrow=block;labelBackgroundColor=none;fontFamily=Verdana;fontSize=12;elbow=vertical;edgeStyle=orthogonalEdgeStyle;curved=1;exitX=1.066;exitY=0.713;exitPerimeter=0;" parent="1" source="QP6aLqSdjkfwqtOfpNBx-25" edge="1">
          <mxGeometry relative="1" as="geometry">
            <mxPoint x="591.3333333333333" y="1050" as="sourcePoint" />
            <mxPoint x="576" y="1089" as="targetPoint" />
            <Array as="points">
              <mxPoint x="631" y="1050" />
              <mxPoint x="631" y="1089" />
            </Array>
          </mxGeometry>
        </mxCell>
        <mxCell id="QP6aLqSdjkfwqtOfpNBx-28" value="" style="html=1;points=[];perimeter=orthogonalPerimeter;rounded=0;shadow=0;comic=0;labelBackgroundColor=none;strokeWidth=1;fontFamily=Verdana;fontSize=12;align=center;" parent="1" vertex="1">
          <mxGeometry x="571" y="1220" width="10" height="40" as="geometry" />
        </mxCell>
        <mxCell id="QP6aLqSdjkfwqtOfpNBx-29" value="dispatch" style="html=1;verticalAlign=bottom;endArrow=block;labelBackgroundColor=none;fontFamily=Verdana;fontSize=12;elbow=vertical;edgeStyle=orthogonalEdgeStyle;curved=1;entryX=1;entryY=0.286;entryPerimeter=0;exitX=1.038;exitY=0.345;exitPerimeter=0;" parent="1" edge="1">
          <mxGeometry relative="1" as="geometry">
            <mxPoint x="576.3333333333335" y="1201" as="sourcePoint" />
            <mxPoint x="581.3333333333335" y="1239.3333333333335" as="targetPoint" />
            <Array as="points">
              <mxPoint x="631" y="1201" />
              <mxPoint x="631" y="1239" />
            </Array>
          </mxGeometry>
        </mxCell>
        <mxCell id="QP6aLqSdjkfwqtOfpNBx-30" value="Note" style="shape=note;whiteSpace=wrap;html=1;size=14;verticalAlign=top;align=left;spacingTop=-6;rounded=0;shadow=0;comic=0;labelBackgroundColor=none;strokeWidth=1;fontFamily=Verdana;fontSize=12" parent="1" vertex="1">
          <mxGeometry x="941" y="730" width="100" height="35" as="geometry" />
        </mxCell>
        <mxCell id="QP6aLqSdjkfwqtOfpNBx-31" value="" style="html=1;points=[];perimeter=orthogonalPerimeter;rounded=0;shadow=0;comic=0;labelBackgroundColor=none;strokeWidth=1;fontFamily=Verdana;fontSize=12;align=center;" parent="1" vertex="1">
          <mxGeometry x="45" y="880" width="10" height="440" as="geometry" />
        </mxCell>
        <mxCell id="QP6aLqSdjkfwqtOfpNBx-32" value="GerarToken&lt;span style=&quot;background-color: initial; font-size: 10px;&quot;&gt;Temp()&lt;/span&gt;" style="html=1;verticalAlign=bottom;endArrow=block;labelBackgroundColor=none;fontFamily=Verdana;fontSize=10;edgeStyle=elbowEdgeStyle;elbow=vertical;exitX=0.833;exitY=0.287;exitDx=0;exitDy=0;exitPerimeter=0;" parent="1" edge="1">
          <mxGeometry x="0.0455" relative="1" as="geometry">
            <mxPoint x="291.33000000000015" y="267.84000000000003" as="sourcePoint" />
            <mxPoint x="489.5" y="268" as="targetPoint" />
            <mxPoint as="offset" />
          </mxGeometry>
        </mxCell>
        <mxCell id="LnAXSB2nj5Kfcnm11oD_-1" value="RetornoCredencial()" style="html=1;verticalAlign=bottom;endArrow=open;dashed=1;endSize=8;labelBackgroundColor=none;fontFamily=Verdana;fontSize=10;edgeStyle=elbowEdgeStyle;elbow=vertical;" parent="1" edge="1">
          <mxGeometry relative="1" as="geometry">
            <mxPoint x="496" y="295" as="targetPoint" />
            <Array as="points">
              <mxPoint x="571" y="295" />
              <mxPoint x="601" y="295" />
            </Array>
            <mxPoint x="693.5000000000002" y="295" as="sourcePoint" />
          </mxGeometry>
        </mxCell>
        <mxCell id="LnAXSB2nj5Kfcnm11oD_-2" value="LerCredencialObtida()" style="html=1;verticalAlign=bottom;endArrow=block;labelBackgroundColor=none;fontFamily=Verdana;fontSize=10;edgeStyle=elbowEdgeStyle;elbow=vertical;exitX=0.833;exitY=0.287;exitDx=0;exitDy=0;exitPerimeter=0;" parent="1" edge="1">
          <mxGeometry x="-0.0251" relative="1" as="geometry">
            <mxPoint x="293" y="308.58" as="sourcePoint" />
            <mxPoint x="492" y="308.58" as="targetPoint" />
            <mxPoint as="offset" />
          </mxGeometry>
        </mxCell>
        <mxCell id="LnAXSB2nj5Kfcnm11oD_-4" value="Validar(CredencialOfuscada+OTP)" style="html=1;verticalAlign=bottom;endArrow=block;labelBackgroundColor=none;fontFamily=Verdana;fontSize=10;elbow=vertical;edgeStyle=orthogonalEdgeStyle;curved=1;exitX=1.066;exitY=0.713;exitPerimeter=0;" parent="1" edge="1">
          <mxGeometry x="-0.312" y="46" relative="1" as="geometry">
            <mxPoint x="74.65999999999985" y="594.0000000000001" as="sourcePoint" />
            <mxPoint x="69" y="633.09" as="targetPoint" />
            <Array as="points">
              <mxPoint x="124" y="594.09" />
              <mxPoint x="124" y="633.09" />
            </Array>
            <mxPoint as="offset" />
          </mxGeometry>
        </mxCell>
        <mxCell id="LnAXSB2nj5Kfcnm11oD_-3" value="GerarHash(CredencialOfuscada+OTP)" style="html=1;verticalAlign=bottom;endArrow=block;labelBackgroundColor=none;fontFamily=Verdana;fontSize=10;elbow=vertical;edgeStyle=orthogonalEdgeStyle;curved=1;exitX=1.066;exitY=0.713;exitPerimeter=0;" parent="1" edge="1">
          <mxGeometry x="-0.312" y="52" relative="1" as="geometry">
            <mxPoint x="293.65999999999985" y="420.0100000000001" as="sourcePoint" />
            <mxPoint x="288" y="459.1" as="targetPoint" />
            <Array as="points">
              <mxPoint x="343" y="420.1" />
              <mxPoint x="343" y="459.1" />
            </Array>
            <mxPoint as="offset" />
          </mxGeometry>
        </mxCell>
        <mxCell id="LnAXSB2nj5Kfcnm11oD_-6" value="Transmitir(Hash+CredencialOfuscada?)" style="html=1;verticalAlign=bottom;endArrow=block;curved=0;rounded=0;entryX=1.067;entryY=0.749;entryDx=0;entryDy=0;entryPerimeter=0;" parent="1" edge="1">
          <mxGeometry x="0.0008" width="80" relative="1" as="geometry">
            <mxPoint x="286.5000000000002" y="499.55999999999995" as="sourcePoint" />
            <mxPoint x="73.67000000000007" y="499.55999999999995" as="targetPoint" />
            <mxPoint as="offset" />
          </mxGeometry>
        </mxCell>
        <mxCell id="LnAXSB2nj5Kfcnm11oD_-7" value="Ofuscar(CredencialObtida+OTP)" style="html=1;verticalAlign=bottom;endArrow=block;labelBackgroundColor=none;fontFamily=Verdana;fontSize=10;elbow=vertical;edgeStyle=orthogonalEdgeStyle;curved=1;exitX=1.066;exitY=0.713;exitPerimeter=0;" parent="1" edge="1">
          <mxGeometry x="-0.312" y="33" relative="1" as="geometry">
            <mxPoint x="303.65999999999985" y="362.0100000000001" as="sourcePoint" />
            <mxPoint x="298" y="401.1" as="targetPoint" />
            <Array as="points">
              <mxPoint x="353" y="362.1" />
              <mxPoint x="353" y="401.1" />
            </Array>
            <mxPoint y="-2" as="offset" />
          </mxGeometry>
        </mxCell>
        <mxCell id="LnAXSB2nj5Kfcnm11oD_-9" value="Validar(Hash(CredencialOfuscada+OTP))" style="html=1;verticalAlign=bottom;endArrow=block;labelBackgroundColor=none;fontFamily=Verdana;fontSize=10;elbow=vertical;edgeStyle=orthogonalEdgeStyle;curved=1;exitX=1.066;exitY=0.713;exitPerimeter=0;" parent="1" edge="1">
          <mxGeometry x="-0.312" y="55" relative="1" as="geometry">
            <mxPoint x="75.65999999999985" y="530.9100000000001" as="sourcePoint" />
            <mxPoint x="70" y="570" as="targetPoint" />
            <Array as="points">
              <mxPoint x="125" y="531" />
              <mxPoint x="125" y="570" />
            </Array>
            <mxPoint y="-1" as="offset" />
          </mxGeometry>
        </mxCell>
        <mxCell id="LnAXSB2nj5Kfcnm11oD_-10" value="ConfigurarAplicacao(CredencialOfuscada)" style="html=1;verticalAlign=bottom;endArrow=block;labelBackgroundColor=none;fontFamily=Verdana;fontSize=10;elbow=vertical;edgeStyle=orthogonalEdgeStyle;curved=1;exitX=1.066;exitY=0.713;exitPerimeter=0;" parent="1" edge="1">
          <mxGeometry x="-0.312" y="57" relative="1" as="geometry">
            <mxPoint x="74.65999999999985" y="650.9100000000001" as="sourcePoint" />
            <mxPoint x="69" y="690" as="targetPoint" />
            <Array as="points">
              <mxPoint x="124" y="651" />
              <mxPoint x="124" y="690" />
            </Array>
            <mxPoint as="offset" />
          </mxGeometry>
        </mxCell>
      </root>
    </mxGraphModel>
  </diagram>
</mxfile>
